inDegrees=yes
name=ik_S53_A07_T02
DataType=double
version=3
OpenSimVersion=4.3-2021-08-27-4bc7ad9
endheader
time	pelvis_tilt	pelvis_list	pelvis_rotation	pelvis_tx	pelvis_ty	pelvis_tz	hip_flexion_r	hip_adduction_r	hip_rotation_r	knee_angle_r	knee_angle_r_beta	ankle_angle_r	subtalar_angle_r	mtp_angle_r	hip_flexion_l	hip_adduction_l	hip_rotation_l	knee_angle_l	knee_angle_l_beta	ankle_angle_l	subtalar_angle_l	mtp_angle_l	lumbar_extension	lumbar_bending	lumbar_rotation	arm_flex_r	arm_add_r	arm_rot_r	elbow_flex_r	pro_sup_r	wrist_flex_r	wrist_dev_r	arm_flex_l	arm_add_l	arm_rot_l	elbow_flex_l	pro_sup_l	wrist_flex_l	wrist_dev_l
22.15999999999962	-4.516238697030739	-1.873725720579974	23.4977922458259	0	0.9399999999999999	0	38.82849733089999	-10.5803777039945	-10.00730473199765	54.26251716793759	0.9470595850004597	0	0	0	38.82849733089999	-10.5803777039945	-10.00730473199765	54.26251716793759	0.9470595850004597	0	0	0	-3.632933530614698	-3.173270585084151	-0.0164539472188942	51.24889410100266	8.736839490429537	17.56762303869242	37.74096629288105	89.98138527173791	0	0	20.62790806946366	-6.427583816775956	1.137472361754454	44.47812890780219	125.0459543392444	0	0
22.17999999999962	-4.509151538125883	-1.86302319684017	23.48343112759344	0	0.9399999999999999	0	38.82349243457592	-10.58167991049334	-10.00731655403706	54.2621096170997	0.9470524718964694	0	0	0	38.82349243457592	-10.58167991049334	-10.00731655403706	54.2621096170997	0.9470524718964694	0	0	0	-3.621214870492691	-3.168697865629428	-0.01008424929465238	51.28000238314102	8.716837346965136	17.59040267940851	37.63546297745862	90.08851756611098	0	0	20.59914584486608	-6.410394611644369	1.143477091443253	44.45800166037021	125.0605517554498	0	0
22.19999999999962	-4.513240812185165	-1.855340600003769	23.4730610754359	0	0.9399999999999999	0	38.82568384664644	-10.58097260179814	-10.00731082437203	54.26228593073911	0.9470555491499932	0	0	0	38.82568384664644	-10.58097260179814	-10.00731082437203	54.26228593073911	0.9470555491499932	0	0	0	-3.621841966323405	-3.160173816164947	0.002815265447209038	51.35674034732577	8.670432802363329	17.64389096575724	37.38352095054762	90.3773250179342	0	0	20.59736098060232	-6.405824118265286	1.184666097456712	44.47646110077309	125.0012594789489	0	0
22.21999999999962	-4.50574922868174	-1.845899264533724	23.50879452726987	0	0.9399999999999999	0	38.82739308305801	-10.58041666486186	-10.00730633192453	54.2624223134101	0.9470579294766446	0	0	0	38.82739308305801	-10.58041666486186	-10.00730633192453	54.2624223134101	0.9470579294766446	0	0	0	-3.612929570192584	-3.149998077302951	-0.04846372775810726	51.42448667577542	8.62860401443718	18.11560692467726	37.34427713312791	89.9783927988406	0	0	20.56994409525464	-6.401637860312245	1.160328927728149	44.47113784445656	125.0089908227988	0	0
22.23999999999961	-4.489471530434734	-1.840179423180097	23.52875063777755	0	0.9399999999999999	0	38.82893646575094	-10.57991894491957	-10.00730229796884	54.26254645166063	0.9470600960978441	0	0	0	38.82893646575094	-10.57991894491957	-10.00730229796884	54.26254645166063	0.9470600960978441	0	0	0	-3.595812100986311	-3.150649098526206	-0.04946527348379488	51.41900948336875	8.537951074531938	18.38345635945175	37.03709499120729	90.13682176309682	0	0	20.57874738963698	-6.410324076453775	1.282657523802023	44.44830152414954	124.9595733877469	0	0
22.25999999999961	-4.474690287283765	-1.835109415660058	23.52886536706745	0	0.9399999999999999	0	38.83091514523281	-10.57927755874143	-10.00729710804216	54.26270471106039	0.9470628582454422	0	0	0	38.83091514523281	-10.57927755874143	-10.00729710804216	54.26270471106039	0.9470628582454422	0	0	0	-3.58116550287857	-3.149299848705594	-0.07454454451909598	51.44350056745442	8.501006680452308	18.62956733959169	36.79467463811631	90.11279988360096	0	0	20.56604232961673	-6.438353617143031	1.298079201980256	44.4206602361912	124.93692710408	0	0
22.27999999999961	-4.454714066392632	-1.847734207401324	23.53717430880704	0	0.9399999999999999	0	38.83140715693371	-10.57912231887142	-10.0072958400254	54.26274505308889	0.9470635623466664	0	0	0	38.83140715693371	-10.57912231887142	-10.0072958400254	54.26274505308889	0.9470635623466664	0	0	0	-3.567999998995032	-3.168366365463838	-0.07987083146567589	51.4077941211976	8.439533176883904	18.78532207808851	36.71770380051782	90.10534303756206	0	0	20.59121580913668	-6.466856579339181	1.344201657333473	44.41186849259129	124.9541842751051	0	0
22.29999999999961	-4.452713521476435	-1.841960713053923	23.53827942593594	0	0.9399999999999999	0	38.83213036242659	-10.57889467699836	-10.00729397904277	54.26280447599679	0.9470645994720603	0	0	0	38.83213036242659	-10.57889467699836	-10.00729397904277	54.26280447599679	0.9470645994720603	0	0	0	-3.564071305944579	-3.163236776536518	-0.0845952166980085	51.3676990664337	8.369405716626511	18.92059397557799	36.60771520817793	90.05023139363971	0	0	20.62909727481665	-6.448778516977545	1.352374316706611	44.38628906768538	124.9486112127525	0	0
22.31999999999961	-4.443359070136131	-1.832161150174224	23.55425861443545	0	0.9399999999999999	0	38.82559642894012	-10.58184952576803	-10.00731494684106	54.26232565655052	0.9470562424962004	0	0	0	38.82559642894012	-10.58184952576803	-10.00731494684106	54.26232565655052	0.9470562424962004	0	0	0	-3.551126184766495	-3.159093135074701	-0.1003304031189802	51.34118490288374	8.409551305294498	18.94689745223208	36.4685174991462	90.00145425365582	0	0	20.66216065443393	-6.390158086662916	1.326305238458003	44.31482255582527	124.987591778628	0	0
